<?xml version="1.0" encoding="utf-8"?>
<!-- Generator: Adobe Illustrator 20.1.0, SVG Export Plug-In . SVG Version: 6.00 Build 0)  -->
<svg version="1.1" id="Ebene_1" xmlns="http://www.w3.org/2000/svg" xmlns:xlink="http://www.w3.org/1999/xlink" x="0px" y="0px"
	 viewBox="0 0 170 170" style="enable-background:new 0 0 170 170;" xml:space="preserve">
<style type="text/css">
	.st0{fill:#1A1A1A;}
	.st1{fill:#808080;}
	.st2{fill:#FFFFFF;}
</style>
<rect class="st0" width="170" height="170"/>
<g>
	<g>
		<path class="st1" d="M63.5,102.1V77.5H48.6v29.6c0,8.4,6.8,15.3,15.3,15.3h57.5l0-14.9l-52.5,0C65.9,107.5,63.5,105.1,63.5,102.1z
			"/>
	</g>
	<g>
		<path class="st1" d="M106.1,47.6H48.6l0,14.9l52.5,0c2.9,0,5.3,2.4,5.3,5.3v24.7h14.9V62.9C121.4,54.4,114.6,47.6,106.1,47.6z"/>
	</g>
</g>
<g>
	<path class="st2" d="M81.5,76.5h7c2.8,0,5,2.2,5,5v7c0,2.8-2.2,5-5,5h-7c-2.8,0-5-2.2-5-5v-7C76.5,78.7,78.7,76.5,81.5,76.5z"/>
</g>
</svg>
