<?xml version="1.0" encoding="utf-8"?>
<!-- Generator: Adobe Illustrator 20.1.0, SVG Export Plug-In . SVG Version: 6.00 Build 0)  -->
<svg version="1.1" id="Ebene_1" xmlns="http://www.w3.org/2000/svg" xmlns:xlink="http://www.w3.org/1999/xlink" x="0px" y="0px"
	 viewBox="0 0 600 200" style="enable-background:new 0 0 600 200;" xml:space="preserve">
<style type="text/css">
	.st0{display:none;}
	.st1{display:inline;fill:#323A45;}
	.st2{display:inline;}
	.st3{fill:#323A45;}
	.st4{fill:#117ABF;}
	.st5{fill:#010202;}
	.st6{fill:#808081;}
	.st7{fill:#1A1A1A;}
	.st8{fill:#FFFFFF;}
	.st9{fill:#808080;}
</style>
<g id="Ebene_1_1_" class="st0">
	<path class="st1" d="M116,114.1h-10.9v23.2H88.3V62.6h32.1c18.2,0,24.9,7.2,24.9,21.2V93c0,9.3-3.4,15.6-10.9,18.8l18.1,25.6h-20
		L116,114.1z M128.5,85.4c0-5.6-2.1-7.9-9-7.9h-14.4v22h14.4c7.2,0,9-2.6,9-8.2V85.4z"/>
	<path class="st1" d="M229.5,137.4H212l-4.5-14.6h-28.1l-4.5,14.6h-17.5l24.8-74.8h22.5L229.5,137.4z M183.7,108.8h19.4l-9.7-31.3
		L183.7,108.8z"/>
	<path class="st1" d="M237.1,137.4V62.6h48.5v14.9H254v15.9h31.6v14.9H254v29L237.1,137.4L237.1,137.4z"/>
	<g class="st2">
		<path class="st3" d="M465.5,88.2v49.2h-16.1V62.6h20.7l25.6,51.5V62.6h16.1v74.8H491L465.5,88.2z"/>
	</g>
	<g class="st2">
		<path class="st3" d="M317.8,122.4c-2.9,0-5.3-2.4-5.3-5.3V82.9c0-2.9,2.4-5.3,5.3-5.3h33.5v-15h-38.4c-8.4,0-15.3,6.8-15.3,15.3
			v44.3c0,8.4,6.8,15.3,15.3,15.3h38.4v-14.9h-33.5V122.4z"/>
	</g>
	<g class="st2">
		<g>
			<path class="st4" d="M378.3,117.1V92.5h-14.9v29.6c0,8.4,6.8,15.3,15.3,15.3h57.5v-14.9h-52.5
				C380.7,122.4,378.3,120.1,378.3,117.1z"/>
		</g>
		<g>
			<path class="st4" d="M420.9,62.6h-57.5v14.9h52.5c2.9,0,5.3,2.4,5.3,5.3v24.7h14.9V77.9C436.2,69.4,429.4,62.6,420.9,62.6z"/>
		</g>
	</g>
	<g class="st2">
		<path class="st3" d="M396.3,91.5h7c2.8,0,5,2.2,5,5v7c0,2.8-2.2,5-5,5h-7c-2.8,0-5-2.2-5-5v-7C391.3,93.7,393.5,91.5,396.3,91.5z"
			/>
	</g>
</g>
<g>
	<path class="st5" d="M116,114.2h-10.9v23.2H88.3V62.6h32.1c18.2,0,24.9,7.2,24.9,21.2V93c0,9.3-3.4,15.6-10.9,18.8l18.1,25.6h-20
		L116,114.2z M128.5,85.4c0-5.6-2.1-7.9-9-7.9h-14.4v22h14.4c7.2,0,9-2.6,9-8.2V85.4z"/>
	<path class="st5" d="M229.5,137.4H212l-4.5-14.6h-28.1l-4.5,14.6h-17.5l24.8-74.8h22.5L229.5,137.4z M183.7,108.8h19.4l-9.7-31.3
		L183.7,108.8z"/>
	<path class="st5" d="M237.1,137.4V62.6h48.5v14.9H254v15.9h31.6v14.9H254v29L237.1,137.4L237.1,137.4z"/>
	<path class="st5" d="M465.5,88.2v49.2h-16.1V62.6h20.7l25.6,51.5V62.6h16.1v74.8H491L465.5,88.2z"/>
	<g>
		<path class="st5" d="M317.8,122.5c-2.9,0-5.3-2.4-5.3-5.3V82.9c0-2.9,2.4-5.3,5.3-5.3h33.5v-15h-38.4c-8.4,0-15.3,6.8-15.3,15.3
			v44.3c0,8.4,6.8,15.3,15.3,15.3h38.4v-14.9L317.8,122.5L317.8,122.5z"/>
	</g>
	<g>
		<g>
			<path class="st6" d="M378.3,117.1V92.5h-14.9v29.6c0,8.4,6.8,15.3,15.3,15.3h57.5v-14.9h-52.5
				C380.7,122.5,378.3,120.1,378.3,117.1z"/>
		</g>
		<g>
			<path class="st6" d="M420.9,62.6h-57.5v14.9h52.5c2.9,0,5.3,2.4,5.3,5.3v24.7h14.9V77.9C436.2,69.4,429.4,62.6,420.9,62.6z"/>
		</g>
	</g>
	<path class="st5" d="M396.3,91.5h7c2.8,0,5,2.2,5,5v7c0,2.8-2.2,5-5,5h-7c-2.8,0-5-2.2-5-5v-7C391.3,93.7,393.5,91.5,396.3,91.5z"
		/>
</g>
<rect y="0" class="st7" width="600" height="200"/>
<g>
	<path class="st8" d="M116,114.1h-10.9v23.2H88.3V62.6h32.1c18.2,0,24.9,7.2,24.9,21.2V93c0,9.3-3.4,15.6-10.9,18.8l18.1,25.6h-20
		L116,114.1z M128.5,85.4c0-5.6-2.1-7.9-9-7.9h-14.4v22h14.4c7.2,0,9-2.6,9-8.2V85.4z"/>
</g>
<g>
	<path class="st8" d="M229.5,137.4H212l-4.5-14.6h-28.1l-4.5,14.6h-17.5l24.8-74.8h22.5L229.5,137.4z M183.7,108.8h19.4l-9.7-31.3
		L183.7,108.8z"/>
</g>
<g>
	<path class="st8" d="M237.1,137.4V62.6h48.5v14.9H254v15.9h31.6v14.9H254v29L237.1,137.4L237.1,137.4z"/>
</g>
<g>
	<g>
		<path class="st8" d="M465.5,88.2v49.2h-16.1V62.6h20.7l25.6,51.5V62.6h16.1v74.8H491L465.5,88.2z"/>
	</g>
</g>
<g>
	<path class="st8" d="M317.8,122.4c-2.9,0-5.3-2.4-5.3-5.3V82.9c0-2.9,2.4-5.3,5.3-5.3h33.5v-15h-38.4c-8.4,0-15.3,6.8-15.3,15.3
		v44.3c0,8.4,6.8,15.3,15.3,15.3h38.4v-14.9h-33.5V122.4z"/>
</g>
<g>
	<g>
		<path class="st9" d="M378.3,117.1V92.5h-14.9v29.6c0,8.4,6.8,15.3,15.3,15.3h57.5v-14.9h-52.5
			C380.7,122.4,378.3,120.1,378.3,117.1z"/>
	</g>
	<g>
		<path class="st9" d="M420.9,62.6h-57.5v14.9h52.5c2.9,0,5.3,2.4,5.3,5.3v24.7h14.9V77.9C436.2,69.4,429.4,62.6,420.9,62.6z"/>
	</g>
</g>
<g>
	<path class="st8" d="M396.3,91.5h7c2.8,0,5,2.2,5,5v7c0,2.8-2.2,5-5,5h-7c-2.8,0-5-2.2-5-5v-7C391.3,93.7,393.5,91.5,396.3,91.5z"
		/>
</g>
</svg>
