<?xml version="1.0" encoding="utf-8"?>
<!-- Generator: Adobe Illustrator 20.1.0, SVG Export Plug-In . SVG Version: 6.00 Build 0)  -->
<svg version="1.1" id="Ebene_1" xmlns="http://www.w3.org/2000/svg" xmlns:xlink="http://www.w3.org/1999/xlink" x="0px" y="0px"
	 viewBox="0 0 170 170" style="enable-background:new 0 0 170 170;" xml:space="preserve">
<style type="text/css">
	.st0{fill:#008CFF;}
	.st1{fill:#BEC3CD;}
</style>
<g>
	<g>
		<path class="st0" d="M64.3,102.1V77.5H49.4v29.6c0,8.4,6.8,15.3,15.3,15.3h57.5l0-14.9l-52.5,0C66.7,107.4,64.3,105.1,64.3,102.1z
			"/>
	</g>
	<g>
		<path class="st0" d="M106.9,47.6H49.4l0,14.9l52.5,0c2.9,0,5.3,2.4,5.3,5.3v24.7h14.9V62.9C122.2,54.4,115.4,47.6,106.9,47.6z"/>
	</g>
</g>
<g>
	<path class="st1" d="M82.3,76.5h7c2.8,0,5,2.2,5,5v7c0,2.8-2.2,5-5,5h-7c-2.8,0-5-2.2-5-5v-7C77.3,78.7,79.5,76.5,82.3,76.5z"/>
</g>
</svg>
