<?xml version="1.0" encoding="utf-8"?>
<!-- Generator: Adobe Illustrator 20.1.0, SVG Export Plug-In . SVG Version: 6.00 Build 0)  -->
<svg version="1.1" id="svg7217" xmlns:svg="http://www.w3.org/2000/svg"
	 xmlns="http://www.w3.org/2000/svg" xmlns:xlink="http://www.w3.org/1999/xlink" x="0px" y="0px" viewBox="0 0 744.1 621.9"
	 style="enable-background:new 0 0 744.1 621.9;" xml:space="preserve">
<style type="text/css">
	.st0{fill:#231F20;}
</style>
<g id="layer1" transform="translate(-2112.292,1515.3408)">
	<g id="g13322" transform="matrix(3.5989788,0,0,3.5989788,-5472.0856,2431.6437)">
		<path id="path13300" class="st0" d="M2255.8-1091.8l-54,54.3h-45.8l-43.7,43.7h53.4v54.3l54.3-54.3h45.5l43.7-43.7h-53.4V-1091.8z
			 M2244.8-1065.4v27.9h-28L2244.8-1065.4z M2160.4-1026.5h30.5l-21.7,21.7h-30.4L2160.4-1026.5z M2206.5-1026.5h30.5l-22,21.7
			h-30.4L2206.5-1026.5z M2252.4-1026.5h30.5l-21.7,21.7h-30.4L2252.4-1026.5z M2204.6-993.8l-27.9,27.6v-27.6L2204.6-993.8z"/>
		<path id="path13304" class="st0" d="M2219.7-961.1v32.3h9.1c9.7,0,18.5-3.1,18.5-16c0-13.2-8.8-16.3-18.5-16.3H2219.7z
			 M2226.3-956.1h3.8c5.4,0,10.7,4.1,10.7,11.3c0,6.9-5.3,11-10.7,11h-3.8V-956.1z"/>
		<path id="path13312" class="st0" d="M2292.3-961.2c-0.8,0-1.5,0-2.2,0.1h-11.6v32.3h6.6v-11.9h0.9h3.8c2.8,0,3.8,1,4.7,3.5
			l3.5,8.5h7.8l-5.3-11.3c-1-1.9-1.3-2.5-2.8-3.5c0,0,5.7-1.6,5.3-7.8C2302.9-959.1,2297.6-961,2292.3-961.2z M2285-955.8h4.4
			c3.4,0,6.3,1,6.6,4.4v0.9c-0.3,3.5-3.1,4.4-6.6,4.4h-4.4V-955.8z"/>
		<path id="path13308" class="st0" d="M2253.9-928.8h19.2v-5.3h-12.6v-27h-6.6V-928.8z"/>
	</g>
</g>
</svg>
