<?xml version="1.0" encoding="UTF-8" standalone="no"?>
<svg width="710px" height="588px" viewBox="0 0 710 588" version="1.1" xmlns="http://www.w3.org/2000/svg" xmlns:xlink="http://www.w3.org/1999/xlink">
    <!-- Generator: Sketch 39.1 (31720) - http://www.bohemiancoding.com/sketch -->
    <title>DLR_Logo</title>
    <desc>Created with Sketch.</desc>
    <defs></defs>
    <g id="Page-1" stroke="none" stroke-width="1" fill="none" fill-rule="evenodd">
        <g id="DLR_Logo" transform="translate(-1.000000, -1.000000)" fill="#FFFFFF">
            <g id="svg7217">
                <g id="layer1" transform="translate(0.708000, 0.340800)">
                    <g id="g13322" transform="translate(0.957626, 0.558850)">
                        <path d="M516.533151,0.71979576 L322.188296,196.144345 L157.355067,196.144345 L0.07969364,353.419718 L192.265162,353.419718 L192.265162,548.844267 L387.68971,353.419718 L551.443246,353.419718 L708.718619,196.144345 L516.533151,196.144345 L516.533151,0.71979576 L516.533151,0.71979576 Z M476.944385,95.7328361 L476.944385,196.144345 L376.172978,196.144345 L476.944385,95.7328361 L476.944385,95.7328361 Z M173.190574,235.733111 L282.959427,235.733111 L204.861587,313.830951 L95.4526318,313.830951 L173.190574,235.733111 L173.190574,235.733111 Z M339.103497,235.733111 L448.87235,235.733111 L369.694816,313.830951 L260.285861,313.830951 L339.103497,235.733111 L339.103497,235.733111 Z M504.296624,235.733111 L614.065477,235.733111 L535.967637,313.830951 L426.558681,313.830951 L504.296624,235.733111 L504.296624,235.733111 Z M332.265437,353.419718 L231.853928,452.751533 L231.853928,353.419718 L332.265437,353.419718 L332.265437,353.419718 Z" id="path13300"></path>
                        <path d="M386.610017,471.106325 L386.610017,587.35334 L419.360724,587.35334 C454.270818,587.35334 485.941832,576.196506 485.941832,529.769679 C485.941832,482.263159 454.270818,471.106325 419.360724,471.106325 L386.610017,471.106325 L386.610017,471.106325 Z M410.363277,489.101219 L424.039396,489.101219 C443.473882,489.101219 462.548469,503.857032 462.548469,529.769679 C462.548469,554.602633 443.473882,569.358446 424.039396,569.358446 L410.363277,569.358446 L410.363277,489.101219 L410.363277,489.101219 Z" id="path13304"></path>
                        <path d="M647.895878,470.746427 C645.016695,470.746427 642.497409,470.746427 639.978124,471.106325 L598.22997,471.106325 L598.22997,587.35334 L621.98323,587.35334 L621.98323,544.525492 L625.222311,544.525492 L638.898431,544.525492 C648.975571,544.525492 652.57455,548.124471 655.813631,557.121918 L668.410057,587.713238 L696.482091,587.713238 L677.407504,547.044778 C673.808525,540.206718 672.728831,538.047331 667.330363,534.448352 C667.330363,534.448352 687.844542,528.689986 686.404951,506.376317 C686.045053,478.304283 666.970465,471.466223 647.895878,470.746427 L647.895878,470.746427 Z M621.623332,490.180913 L637.458839,490.180913 C649.695367,490.180913 660.132406,493.779891 661.212099,506.016419 L661.212099,509.2555 C660.132406,521.851926 650.055265,525.091007 637.458839,525.091007 L621.623332,525.091007 L621.623332,490.180913 L621.623332,490.180913 Z" id="path13312"></path>
                        <polygon id="path13308" points="509.695092 587.35334 578.795485 587.35334 578.795485 568.278753 533.448352 568.278753 533.448352 471.106325 509.695092 471.106325"></polygon>
                    </g>
                </g>
            </g>
        </g>
    </g>
</svg>