<?xml version="1.0" encoding="UTF-8" standalone="no"?>
<!-- Generator: Adobe Illustrator 20.1.0, SVG Export Plug-In . SVG Version: 6.00 Build 0)  -->

<svg
   xmlns:dc="http://purl.org/dc/elements/1.1/"
   xmlns:cc="http://creativecommons.org/ns#"
   xmlns:rdf="http://www.w3.org/1999/02/22-rdf-syntax-ns#"
   xmlns:svg="http://www.w3.org/2000/svg"
   xmlns="http://www.w3.org/2000/svg"
   xmlns:sodipodi="http://sodipodi.sourceforge.net/DTD/sodipodi-0.dtd"
   xmlns:inkscape="http://www.inkscape.org/namespaces/inkscape"
   version="1.1"
   id="Ebene_1"
   x="0px"
   y="0px"
   viewBox="0 0 105 105"
   xml:space="preserve"
   inkscape:version="0.91 r13725"
   sodipodi:docname="RAFCON_figurative_mark.svg"
   width="105"
   height="105"><metadata
     id="metadata21"><rdf:RDF><cc:Work
         rdf:about=""><dc:format>image/svg+xml</dc:format><dc:type
           rdf:resource="http://purl.org/dc/dcmitype/StillImage" /><dc:title></dc:title></cc:Work></rdf:RDF></metadata><defs
     id="defs19" /><sodipodi:namedview
     pagecolor="#ffffff"
     bordercolor="#666666"
     borderopacity="1"
     objecttolerance="10"
     gridtolerance="10"
     guidetolerance="10"
     inkscape:pageopacity="0"
     inkscape:pageshadow="2"
     inkscape:window-width="1920"
     inkscape:window-height="1111"
     id="namedview17"
     showgrid="false"
     inkscape:snap-object-midpoints="true"
     inkscape:snap-center="true"
     inkscape:snap-text-baseline="true"
     inkscape:snap-page="true"
     inkscape:zoom="3.9265224"
     inkscape:cx="72.357253"
     inkscape:cy="50.209797"
     inkscape:window-x="0"
     inkscape:window-y="27"
     inkscape:window-maximized="1"
     inkscape:current-layer="Ebene_1" /><style
     type="text/css"
     id="style3">
	.st0{fill:#0078FF;}
	.st1{fill:#323741;}
</style><rect
     id="rect3349"
     width="105"
     height="105"
     x="0"
     y="0"
     rx="15"
     ry="15"
     style="fill:#bec3c0;fill-opacity:1" /><g
     id="g5"
     transform="translate(-33.3,-32.5)"><g
       id="g7"><path
         class="st0"
         d="m 64.3,102.1 0,-24.6 -14.9,0 0,29.6 c 0,8.4 6.8,15.3 15.3,15.3 l 57.5,0 0,-14.9 -52.5,0 c -3,-0.1 -5.4,-2.4 -5.4,-5.4 z"
         id="path9"
         inkscape:connector-curvature="0"
         style="fill:#0078ff" /></g><g
       id="g11"><path
         class="st0"
         d="m 106.9,47.6 -57.5,0 0,14.9 52.5,0 c 2.9,0 5.3,2.4 5.3,5.3 l 0,24.7 14.9,0 0,-29.6 c 0.1,-8.5 -6.7,-15.3 -15.2,-15.3 z"
         id="path13"
         inkscape:connector-curvature="0"
         style="fill:#0078ff" /></g></g><path
     class="st1"
     d="m 49,44 7,0 c 2.8,0 5,2.2 5,5 l 0,7 c 0,2.8 -2.2,5 -5,5 l -7,0 c -2.8,0 -5,-2.2 -5,-5 l 0,-7 c 0,-2.8 2.2,-5 5,-5 z"
     id="path15"
     inkscape:connector-curvature="0"
     style="fill:#323741" /></svg>